{"title":"The.Wizards.Return.Alex.vs.Alex.720p.HDTV.x264-HERO","uid":8262714,"size":887096735,"categoryP":"video","categoryS":"hd___tv_shows","magnet":"?xt=urn:btih:740f477769a2294a5ee7cc9557db2e27a88d9790&amp;dn=The.Wizards.Return.Alex.vs.Alex.720p.HDTV.x264-HERO&amp;tr=udp%3A%2F%2Ftracker.openbittorrent.com%3A80&amp;tr=udp%3A%2F%2Fopen.demonii.com%3A1337&amp;tr=udp%3A%2F%2Ftracker.coppersurfer.tk%3A6969&amp;tr=udp%3A%2F%2Fexodus.desync.com%3A6969","seeders":1,"leechers":4,"uploader":"TheHeartlessHero","files":1,"time":1363419817,"description":"The Russo family and friends are headed to Tuscany, Italy, to meet their long lost relatives... but when Alex tries to prove she's more than a seemingly carefree young Wizard, she inadvertently conjures a spell that creates a Good Alex and an Evil Alex. When Evil Alex gets roped into a charming young wizard's foreboding plan to take over the world, Good Alex must find a way to save her family and humankind, which leads to a monumental battle between the two versions of herself - all atop the Tower of Pisa.\n\nGeneral\nComplete name                            : The.Wizards.Return.Alex.vs.Alex.720p.HDTV.x264-HERO.mp4\nFormat                                   : MPEG-4\nFormat profile                           : Base Media / Version 2\nCodec ID                                 : mp42\nFile size                                : 846 MiB\nDuration                                 : 57mn 52s\nOverall bit rate mode                    : Variable\nOverall bit rate                         : 2 044 Kbps\nEncoded date                             : UTC 2013-03-16 05:33:34\nWriting application                      : HandBrake 4650svn 2012050801\n\nVideo\nID                                       : 1\nFormat                                   : AVC\nFormat/Info                              : Advanced Video Codec\nFormat profile                           : &lt;a class=&quot;__cf_email__&quot; href=&quot;/cdn-cgi/l/email-protection&quot; data-cfemail=&quot;0e466769664e423d203f&quot;&gt;[email&amp;#160;protected]&lt;/a&gt;&lt;script cf-hash='f9e31' type=&quot;text/javascript&quot;&gt;\n/* &lt;![CDATA[ */!function(){try{var t=&quot;currentScript&quot;in document?document.currentScript:function(){for(var t=document.getElementsByTagName(&quot;script&quot;),e=t.length;e--;)if(t[e].getAttribute(&quot;cf-hash&quot;))return t[e]}();if(t&amp;&amp;t.previousSibling){var e,r,n,i,c=t.previousSibling,a=c.getAttribute(&quot;data-cfemail&quot;);if(a){for(e=&quot;&quot;,r=parseInt(a.substr(0,2),16),n=2;a.length-n;n+=2)i=parseInt(a.substr(n,2),16)^r,e+=String.fromCharCode(i);e=document.createTextNode(e),c.parentNode.replaceChild(e,c)}}}catch(u){}}();/* ]]&gt; */&lt;/script&gt;\nFormat settings, CABAC                   : Yes\nFormat settings, ReFrames                : 4 frames\nCodec ID                                 : avc1\nCodec ID/Info                            : Advanced Video Coding\nDuration                                 : 57mn 52s\nBit rate mode                            : Variable\nBit rate                                 : 1 909 Kbps\nWidth                                    : 1 280 pixels\nHeight                                   : 720 pixels\nDisplay aspect ratio                     : 16:9\nFrame rate mode                          : Variable\nFrame rate                               : 30.000 fps\nMinimum frame rate                       : 29.412 fps\nMaximum frame rate                       : 30.303 fps\nColor space                              : YUV\nChroma subsampling                       : 4:2:0\nBit depth                                : 8 bits\nScan type                                : Progressive\nBits/(Pixel*Frame)                       : 0.069\nStream size                              : 790 MiB (93%)\nWriting library                          : x264 core 122\nColor primaries                          : BT.709\nTransfer characteristics                 : BT.709\nMatrix coefficients                      : BT.709\n\nAudio\nID                                       : 2\nFormat                                   : AAC\nFormat/Info                              : Advanced Audio Codec\nFormat profile                           : LC\nCodec ID                                 : 40\nDuration                                 : 57mn 52s\nBit rate mode                            : Variable\nBit rate                                 : 128 Kbps\nMaximum bit rate                         : 166 Kbps\nChannel(s)                               : 2 channels\nChannel positions                        : Front: L R\nSampling rate                            : 48.0 KHz\nCompression mode                         : Lossy\nDelay relative to video                  : 66ms\nStream size                              : 53.0 MiB (6%)","torrent":{"xt":"urn:btih:740f477769a2294a5ee7cc9557db2e27a88d9790","amp;dn":"The.Wizards.Return.Alex.vs.Alex.720p.HDTV.x264-HERO","amp;tr":["udp%3A%2F%2Ftracker.openbittorrent.com%3A80","udp%3A%2F%2Fopen.demonii.com%3A1337","udp%3A%2F%2Ftracker.coppersurfer.tk%3A6969","udp%3A%2F%2Fexodus.desync.com%3A6969"],"infoHash":"740f477769a2294a5ee7cc9557db2e27a88d9790","infoHashBuffer":{"type":"Buffer","data":[116,15,71,119,105,162,41,74,94,231,204,149,87,219,46,39,168,141,151,144]},"announce":[],"urlList":[]}}